<svg width="258" height="240" viewBox="0 0 258 240" fill="none" xmlns="http://www.w3.org/2000/svg">
<path d="M238.37 179.788C232.52 188.223 224.012 192.44 214.972 191.913C214.972 191.913 202.741 192.44 194.232 181.37C194.232 181.37 191.574 177.152 185.724 177.152C181.47 177.152 177.216 180.315 176.152 185.06C163.921 235.669 112.871 248.321 81.4967 235.142C79.3696 234.088 77.7743 231.979 78.306 229.343C78.306 228.289 78.8378 226.707 80.9649 225.653C82.0285 225.126 83.092 225.126 83.092 225.126C105.426 222.49 135.206 205.093 142.65 169.772C143.714 165.554 141.587 160.282 135.737 158.701C129.888 157.646 126.166 161.864 125.102 163.973C109.149 197.185 74.5836 212.473 46.9315 211.419C42.1455 211.419 22.47 211.419 9.70742 232.506C8.1121 234.615 5.45324 236.196 2.79438 234.615C0.667286 233.56 -0.396259 230.924 0.135514 228.289C4.92146 209.837 18.2158 188.75 45.8679 179.788C72.4566 171.353 81.4967 151.32 83.6238 137.614C84.6873 132.342 80.9649 126.016 73.5201 126.543C58.0987 127.597 43.7408 138.141 38.9549 152.902C31.5101 172.407 16.6205 179.261 8.1121 181.897C5.45324 182.424 3.32615 181.37 2.2626 179.788C0.667286 177.152 1.73083 174.516 2.79438 172.935C5.98501 169.772 7.58033 167.663 9.17564 164.5C13.4298 157.646 15.0251 150.266 15.0251 144.467C16.6205 114.945 38.4231 87.5315 70.3295 80.6781C77.7743 79.0966 81.4967 68.553 74.0519 62.754C74.0519 62.754 66.6071 58.0094 63.9482 47.993C63.9482 47.993 61.8211 41.1396 64.48 33.2319C66.6071 27.4329 69.7977 23.2155 74.5836 19.5252C102.768 1.07391 133.079 -2.08917 155.413 1.07391C184.661 4.76417 208.058 18.998 223.48 34.2863C249.537 60.1181 261.768 95.9664 256.982 131.815C253.259 159.228 238.37 179.788 238.37 179.788Z" fill="#00CA54"/>
</svg>
